<?xml version="1.0" encoding="UTF-8"?>
<svg width="327px" height="40px" viewBox="0 0 327 401" version="1.1" xmlns="http://www.w3.org/2000/svg" xmlns:xlink="http://www.w3.org/1999/xlink">
    <title>Shield</title>
    <g id="Page-1" stroke="none" stroke-width="1" fill="none" fill-rule="evenodd">
        <g id="Shield" fill-rule="nonzero">
            <path d="M163.093998,400 C152.983452,395.490791 70.5421763,358.352421 43.8793846,335.827038 C15.1716816,311.585505 0,276.762953 0,235.140273 L0,37.2952848 C45.3201435,12.5480397 100.176767,0 163.093998,0 C226.008186,0 280.869242,12.5480397 326.184539,37.2952848 L326.184539,235.140273 C326.184539,276.762953 311.023542,311.585505 282.321532,335.827038 C256.075632,357.987221 172.658576,395.706583 163.093998,400" id="Fill-2" fill="#FBB416"></path>
            <path d="M14.9625935,234.935584 C14.9625935,271.826252 28.1962182,302.630112 53.3181348,323.744012 C75.5219905,342.403256 143.824506,374.272467 163.094556,383.042394 C182.100541,374.392916 250.248515,342.932828 272.83299,323.744012 C298.132681,302.266683 311.221945,272.185532 311.221945,234.935584 L311.221945,41.1049836 C216.249578,32.0044224 103.893092,37.5897358 14.9625935,121.68093 L14.9625935,234.935584 Z M29.4437267,223.150246 L29.4437267,131.180844 L57.816039,131.180844 L57.816039,224.452342 C57.816039,232.746728 59.7534671,245.036701 72.7665616,245.036701 C78.5337903,245.036701 83.1048277,243.649459 86.1897648,241.470983 L86.1897648,131.180844 L114.537829,131.180844 L114.537829,258.119983 C103.687832,265.720748 89.1260067,269.867927 71.7677457,269.867927 C43.6810947,269.867927 29.4437267,254.16176 29.4437267,223.150246 Z M157.487518,329.309613 L129.088141,329.309613 L129.088141,138.619615 C139.376506,131.772912 151.876657,128.21011 167.344972,128.21011 C201.216828,128.21011 219.841598,154.705818 219.841598,197.366648 C219.841598,240.108664 201.752195,269.373658 170.258187,269.373658 C164.426717,269.373658 160.321139,268.576225 157.486316,267.703981 L157.486316,329.309613 L157.487518,329.309613 Z M157.487518,153.879503 C159.778897,152.705539 163.692147,151.768317 167.528406,151.768317 C183.996955,151.768317 190.831081,165.327982 190.831081,198.114882 C190.831081,230.100995 183.033897,245.551727 166.689796,245.551727 C162.849699,245.551727 159.514651,244.575672 157.488736,243.788602 L157.488736,153.879503 L157.487518,153.879503 Z M226.271419,166.34059 C226.140771,142.703258 245.67667,128.777264 264.353951,128.21011 C279.934198,127.722287 290.500142,133.765317 295.490184,137.718119 L295.490184,163.163844 C289.578916,156.904226 279.98873,151.231487 270.061177,151.13907 C262.016517,151.067629 253.652648,154.705818 253.365773,165.113881 C253.095055,175.761173 261.444774,179.983754 272.037013,186.366305 C295.748789,200.748353 300.330716,213.657605 299.795349,230.728165 C299.255945,249.43309 286.738422,269.867927 258.689144,269.867927 C247.478738,269.867927 236.381463,266.260683 227.484231,260.792699 L227.484231,233.841158 C234.75312,240.490775 245.561515,245.682551 254.630455,245.755243 C265.034789,245.794695 271.891543,239.651784 271.643048,229.43645 C271.436971,220.261544 266.404512,215.262907 253.919327,207.705758 C230.514619,193.560656 226.322587,181.911148 226.271419,166.34059 Z" id="Fill-3" fill="#351D13"></path>
            <path d="M265.284018,369.491839 L265.284018,392.55065 L269.334088,392.55065 L269.334088,382.92955 L269.90769,382.92955 C270.201669,383.395679 276.009332,392.55065 276.009332,392.55065 L280.9106,392.55065 C280.9106,392.55065 274.755912,383.316274 274.151691,382.396578 C277.134109,381.671288 279.128525,379.464067 279.128525,376.270286 C279.128525,373.001237 277.156568,369.49395 271.648991,369.49395 L265.284018,369.49395 L265.284018,369.491839 Z M271.183538,372.854946 C274.625274,372.854946 275.076432,374.583517 275.076432,376.098891 C275.076432,378.260129 274.180254,379.719068 269.832184,379.719068 L269.334088,379.719068 L269.334088,372.854946 L271.183538,372.854946 Z M287.026509,381.077659 C287.026509,389.666193 280.236981,396.655726 271.818408,396.655726 C263.442729,396.655726 256.630728,389.666193 256.630728,381.077659 C256.630728,372.487096 263.442729,365.455718 271.818408,365.455718 C280.236981,365.455718 287.026509,372.489166 287.026509,381.077659 Z M271.804112,362.094763 C261.650407,362.094763 253.366584,370.645635 253.366584,381.077659 C253.366584,391.520154 261.650407,400 271.804112,400 C282.033353,400 290.274314,391.520154 290.274314,381.077659 C290.27229,370.645635 282.033353,362.094763 271.804112,362.094763 Z" id="Fill-4" fill="#FBB416"></path>
        </g>
    </g>
</svg>